<svg width="26" height="25" viewBox="0 0 26 25" fill="none" xmlns="http://www.w3.org/2000/svg">
<path d="M25.4141 18.3755C24.8009 17.4139 23.6152 16.8006 21.2531 15.5788C20.7264 15.3063 20.1294 14.9974 19.4696 14.649C19.3681 14.5954 19.2432 14.6091 19.1565 14.6838L15.1071 18.159L11.0455 14.6838C10.9586 14.6095 10.834 14.5958 10.7327 14.6493C10.0375 15.0164 9.41388 15.3381 8.86363 15.6219C6.53881 16.821 5.37185 17.423 4.76807 18.375C4.7199 18.451 4.67598 18.529 4.63536 18.6088C2.21815 17.7866 0.553195 15.5197 0.553195 13.0002C0.553195 9.72616 3.28038 7.06253 6.63255 7.06253C7.83499 7.06253 8.9928 7.40421 9.98838 8.04986C10.6504 10.4817 12.414 13.2717 15.2032 13.2717C18.8221 13.2717 20.7152 8.57591 20.7152 6.05864C20.7152 3.26928 18.2425 1 15.2032 1C12.1642 1 9.69186 3.26928 9.69186 6.05864C9.69186 6.43659 9.7349 6.86385 9.81961 7.31672C8.84675 6.79421 7.75748 6.51962 6.63255 6.51962C2.9753 6.51962 0 9.42684 0 13.0003C0 14.4267 0.465236 15.7797 1.34547 16.9132C2.12937 17.9227 3.21681 18.6949 4.43306 19.114C4.169 19.9795 4.18181 21.1284 4.20301 22.9813C4.20891 23.4978 4.21558 24.0832 4.21688 24.7291C4.21717 24.8788 4.34091 25 4.49351 25H25.7005C25.8531 25 25.9768 24.8788 25.9771 24.7291C25.9783 24.0984 25.9846 23.5246 25.9903 23.0184C26.0173 20.571 26.0309 19.3425 25.4141 18.3755ZM4.99641 19.1693C4.99629 19.1697 4.99623 19.17 4.99611 19.1703C4.99623 19.1699 4.99629 19.1696 4.99641 19.1693ZM4.94369 19.3392C4.94003 19.3522 4.93649 19.3653 4.933 19.3785C4.93655 19.3654 4.94003 19.3522 4.94369 19.3392ZM4.91949 19.4311C4.91618 19.4443 4.91281 19.4575 4.90963 19.4709C4.91281 19.4575 4.91618 19.4443 4.91949 19.4311ZM5.10314 18.9726C5.10396 18.9606 5.10337 18.9488 5.1026 18.9369C5.10349 18.9488 5.10379 18.9606 5.10314 18.9726ZM5.10007 18.9135C5.11919 18.8729 5.13944 18.8332 5.16058 18.7942C5.1395 18.8332 5.11919 18.8728 5.10007 18.9135ZM5.10172 18.9853C5.10007 19.0007 5.09747 19.0161 5.09286 19.0315C5.08856 19.0459 5.08306 19.0597 5.07663 19.0728C5.08306 19.0596 5.08856 19.0459 5.09286 19.0315C5.09747 19.0161 5.09995 19.0007 5.10172 18.9853ZM5.05916 19.1021C5.05756 19.1045 5.05638 19.1071 5.05473 19.1094C5.05638 19.1071 5.05762 19.1045 5.05916 19.1021ZM4.79298 20.2399C4.79156 20.2562 4.79026 20.2727 4.78891 20.2892C4.7902 20.2727 4.7915 20.2562 4.79298 20.2399ZM4.7833 20.3604C4.78206 20.3774 4.78082 20.3946 4.77964 20.4118C4.78088 20.3946 4.78206 20.3774 4.7833 20.3604ZM4.7748 20.4873C4.77379 20.5037 4.77273 20.5201 4.77179 20.5368C4.77279 20.5201 4.77379 20.5037 4.7748 20.4873ZM4.75998 20.7928C4.75939 20.8097 4.7588 20.8271 4.75821 20.8441C4.7588 20.8271 4.75933 20.8097 4.75998 20.7928ZM4.74658 21.9314C4.74664 21.9474 4.74664 21.9633 4.74676 21.9796C4.7467 21.9633 4.74664 21.9474 4.74658 21.9314ZM4.74935 22.3336C4.74953 22.3537 4.74971 22.3739 4.74994 22.394C4.74977 22.3739 4.74953 22.3536 4.74935 22.3336ZM4.75124 22.5224C4.75148 22.5452 4.75171 22.5679 4.75195 22.5909C4.75166 22.568 4.75142 22.5451 4.75124 22.5224ZM4.75337 22.7235C4.75354 22.7443 4.75384 22.7649 4.75402 22.7858C4.75384 22.7649 4.7536 22.7443 4.75337 22.7235Z" fill="#252525"/>
<path d="M4.63532 14.4875C4.48531 14.2983 4.38235 14.0741 4.32835 13.8128L3 13.9636C3.10296 14.6016 3.33636 15.0968 3.70447 15.4466C4.07213 15.7964 4.52401 16.0296 5.10971 16.0985L5.11481 17L5.85753 16.9847L5.85988 16.0618C6.52763 15.9611 7.06392 15.7111 7.43853 15.3062C7.81359 14.9009 8 14.4038 8 13.8128C8 13.284 7.85178 12.8505 7.5536 12.5124C7.25734 12.1759 6.69772 11.8999 5.87671 11.6887V9.77523C6.20797 9.9125 6.41345 10.1739 6.49359 10.5586L7.79076 10.398C7.70177 9.90764 7.49622 9.51575 7.17523 9.22268C6.85277 8.93011 6.40172 8.76319 5.85797 8.70101L5.85753 8H5.10977L5.11532 8.69203C4.53293 8.74751 4.08603 8.95508 3.73571 9.31986C3.38538 9.6831 3.20917 10.1335 3.20917 10.6691C3.20917 11.1983 3.36435 11.6466 3.67469 12.0184C3.98313 12.3883 4.46963 12.6644 5.134 12.8469V14.8978C4.95083 14.8124 4.7854 14.6768 4.63532 14.4875ZM5.87665 13.0581C6.18509 13.1436 6.40637 13.2639 6.54057 13.4227C6.67662 13.5802 6.74464 13.7695 6.74464 13.9869C6.74464 14.233 6.66451 14.446 6.50238 14.6267C6.34205 14.8074 6.13287 14.9246 5.87665 14.9778V13.0581ZM4.64418 11.0946C4.53752 10.9456 4.48531 10.7846 4.48531 10.6122C4.48531 10.423 4.54262 10.2508 4.65955 10.0933C4.77647 9.93575 4.93349 9.824 5.13387 9.75512V11.4529C4.91443 11.3621 4.75046 11.2418 4.64418 11.0946Z" fill="#252525"/>
</svg>
